<svg width="141" height="140" viewBox="0 0 141 140" fill="none" xmlns="http://www.w3.org/2000/svg">
<path d="M69.3038 10L65.459 18.8127C63.4688 18.9345 61.4886 19.1861 59.5309 19.5659L53.6496 11.9416L47.3105 14.1053L47.2789 23.8057C44.5937 25.1914 42.0203 26.8667 39.5894 28.822L30.6305 24.7724L26.0438 29.6703L30.6302 38.4037C29.167 40.4979 27.881 42.7115 26.7859 45.0212L16.9497 45.2905L14.9525 51.7017L22.8942 57.5746C22.514 59.9534 22.3283 62.3571 22.3177 64.7628L13.5 69.2483L14.4236 75.9054L24.1019 77.8074C24.6808 79.841 25.3982 81.8323 26.2491 83.7671L19.8709 91.7163L23.431 97.4062L33.3461 95.0763C33.9734 95.8175 34.6236 96.539 35.2957 97.2396C36.6992 98.6973 38.1944 100.063 39.772 101.329L37.8458 111.299L43.6403 114.659L51.2106 108.042C53.3768 108.916 55.607 109.62 57.8814 110.15L60.3524 119.889L67.0227 120.436L71.0329 111.251C73.8041 111.084 76.5661 110.668 79.2822 109.999L85.6532 117.409L91.8657 114.912L91.6838 111.156L77.1823 100.116C72.9606 101.188 68.5828 101.475 64.2831 100.988C56.2616 100.08 48.5529 96.4433 42.5033 90.1625C28.6757 75.8049 29.0711 52.9664 43.3718 39.0851C50.2984 32.3613 59.2081 28.9503 68.1279 28.8537C77.6236 28.7507 87.1279 32.4031 94.2577 39.8061C105.861 51.8553 107.443 69.9812 99.1993 83.7037L107.275 89.8536C108.28 88.273 109.187 86.632 109.991 84.94L119.756 84.6704L121.753 78.2593L113.867 72.4264C114.248 70.0281 114.44 67.6035 114.443 65.1749L123.206 60.7051L122.282 54.048L112.612 52.146C111.799 49.3339 110.72 46.6059 109.391 43.9989L115.154 35.9866L111.301 30.4943L101.813 33.2601C101.694 33.1333 101.578 33.0047 101.457 32.8797C99.9638 31.3285 98.3654 29.8825 96.6736 28.5522L98.4894 19.1371L92.6942 15.7771L85.4948 22.07C83.1641 21.1284 80.7704 20.3955 78.3425 19.851L75.9824 10.5468L69.3038 10ZM54.6128 48.9282C51.9998 48.9582 49.4097 49.6023 47.0344 50.7745L58.4576 59.4766C61.9123 62.108 62.8922 67.1089 60.241 70.6193C57.5891 74.1317 52.4969 74.6597 48.9922 71.9907L37.5771 63.2967C36.4082 69.5843 38.6216 76.2465 44.0425 80.3754C48.904 84.0773 55.1433 84.7704 60.5179 82.8323L61.7254 82.3961L62.7434 83.1729L96.8942 109.184L97.9122 109.96L97.8253 111.244C97.4118 116.963 99.7426 122.811 104.606 126.515C110.028 130.644 117.021 130.986 122.739 128.164L111.324 119.47C107.82 116.801 106.959 111.734 109.612 108.224C112.264 104.715 117.326 104.318 120.782 106.948L132.197 115.643C133.363 109.357 131.158 102.692 125.739 98.5639C120.86 94.8466 114.67 94.1101 109.327 96.0195L108.127 96.4476L107.109 95.6708L72.9586 69.6606L71.9405 68.8838L72.0274 67.6082C72.419 61.9308 70.0444 56.1468 65.1672 52.4313C61.9985 50.018 58.2906 48.8864 54.6131 48.9285L54.6128 48.9282ZM65.6174 71.816L107.014 103.35L104.164 107.13L62.7596 75.5884L65.6174 71.816Z" fill="#FFD700"/>
</svg>
