<svg width="140" height="141" viewBox="0 0 140 141" fill="none" xmlns="http://www.w3.org/2000/svg">
<path d="M108.233 57.625L98.9533 31.0075C98.1838 28.8136 96.7878 26.918 94.9532 25.5758C93.1185 24.2336 90.9333 23.5091 88.6917 23.5H79.9583C76.9563 23.5 74.5 26.0594 74.5 29.1875C74.5 32.3156 76.9563 34.875 79.9583 34.875H88.6917L96.6608 57.625H70.4062L68.4413 51.9375H68.9325C71.9346 51.9375 74.3908 49.3781 74.3908 46.25C74.3908 43.1219 71.9346 40.5625 68.9325 40.5625H52.6667C49.6646 40.5625 47.2083 43.1219 47.2083 46.25C47.2083 49.3781 49.6646 51.9375 52.6667 51.9375H56.7604L66.6946 80.375H63.0375C60.6358 67.6919 50.4287 58.3075 37.6562 57.6819C22.3729 56.8856 9 70.1375 9 86.0625C9 101.988 21.0083 114.5 36.2917 114.5C49.7192 114.5 60.5812 104.888 63.0375 91.75H85.9625C88.3642 104.433 98.5713 113.817 111.344 114.443C126.627 115.182 140 101.987 140 86.0056C140 70.0806 127.992 57.5681 112.708 57.5681H108.233V57.625ZM51.6842 91.75C49.3917 98.7456 42.9508 103.58 35.2 103.068C27.0671 102.556 20.2987 95.39 19.9167 86.8588C19.5346 76.9056 26.8488 69 36.2917 69C43.5513 69 49.5008 73.7206 51.6842 80.375H41.75C38.7479 80.375 36.2917 82.9344 36.2917 86.0625C36.2917 89.1906 38.7479 91.75 41.75 91.75H51.6842ZM85.9625 80.375H78.3208L74.3363 69H90.875C88.4733 72.2987 86.7267 76.1094 85.9625 80.375ZM112.053 103.125C103.647 102.784 96.5517 95.3331 96.3333 86.5175C96.2242 81.0575 98.4621 76.28 102.065 73.095L105.449 82.7638C106.486 85.7212 109.597 87.2569 112.435 86.1763C115.274 85.0956 116.747 81.8537 115.71 78.8962L112.272 69.0569L112.326 69C121.715 68.7725 129.138 76.3369 129.138 86.0625C129.148 88.3691 128.707 90.6537 127.843 92.7773C126.979 94.9008 125.709 96.819 124.111 98.4151C122.513 100.011 120.619 101.252 118.547 102.061C116.474 102.871 114.265 103.233 112.053 103.125Z" fill="#FFD700"/>
</svg>
