<svg width="140" height="140" viewBox="0 0 140 140" fill="none" xmlns="http://www.w3.org/2000/svg">
<path fill-rule="evenodd" clip-rule="evenodd" d="M121.993 8.93696C123.25 8.18281 124.723 7.87032 126.178 8.0491C127.632 8.22787 128.986 8.88767 130.023 9.92373L130.075 9.97636C131.115 11.0172 131.776 12.3767 131.953 13.8376C132.129 15.2985 131.811 16.7764 131.049 18.035L124.025 29.6198C123.287 30.837 122.174 31.7816 120.853 32.3119C119.532 32.8421 118.075 32.9293 116.7 32.5603L92.829 56.4403L95.5515 59.1704C101.805 65.4265 101.634 75.5443 95.4857 81.6886C92.5579 84.6207 88.5875 86.2719 84.4447 86.2804C83.9935 86.2818 83.5517 86.4087 83.1685 86.6468C82.7853 86.885 82.4758 87.225 82.2746 87.629L76.4154 99.3387C75.4673 101.237 74.2194 102.969 72.7197 104.47L50.9796 126.218C49.1476 128.051 46.9727 129.505 44.579 130.497C42.1853 131.489 39.6197 132 37.0287 132C34.4377 132 31.8721 131.489 29.4784 130.497C27.0847 129.505 24.9097 128.051 23.0778 126.218L13.7793 116.916C11.9471 115.084 10.4936 112.908 9.50202 110.513C8.51039 108.119 8 105.552 8 102.96C8 100.368 8.51039 97.8016 9.50202 95.4069C10.4936 93.0123 11.9471 90.8365 13.7793 89.0039L35.5195 67.2553C37.0195 65.7551 38.7514 64.5067 40.6488 63.5582L52.354 57.7034C52.7588 57.5016 53.0993 57.191 53.3375 56.8064C53.5756 56.4217 53.7018 55.9783 53.702 55.5259C53.702 51.3617 55.3855 47.3817 58.2921 44.474C64.434 38.3297 74.5479 38.1586 80.8016 44.4148L83.524 47.1383L107.395 23.2584C107.026 21.8777 107.116 20.4145 107.653 19.0899C108.189 17.7653 109.142 16.6514 110.367 15.9167L121.993 8.93696ZM55.6288 84.3529C56.8616 85.5865 57.5542 87.2595 57.5542 89.0039C57.5542 90.7482 56.8616 92.4212 55.6288 93.6549L41.6746 107.614C40.4407 108.849 38.7671 109.542 37.0221 109.542C35.2771 109.542 33.6035 108.849 32.3696 107.614C31.1357 106.38 30.4425 104.706 30.4425 102.96C30.4425 101.214 31.1357 99.5402 32.3696 98.3059L46.3238 84.3594C47.557 83.1262 49.2293 82.4333 50.973 82.4333C52.7167 82.4333 54.389 83.1262 55.6222 84.3594" fill="#FFD700"/>
</svg>
